<svg width="58" height="24" viewBox="0 0 58 24" fill="none" xmlns="http://www.w3.org/2000/svg">
<path d="M39.529 2.95619C40.3786 1.51287 40.8034 0.791216 41.4954 0.395608C42.1873 0 43.0247 0 44.6996 0H47.1337C51.7922 0 54.1214 0 54.9853 1.51099C55.8492 3.02199 54.6676 5.02926 52.3043 9.04381L45.2402 21.0438C44.3906 22.4871 43.9657 23.2088 43.2738 23.6044C42.5818 24 41.7444 24 40.0696 24H37.6355C32.977 24 30.6477 24 29.7838 22.489C28.92 20.978 30.1016 18.9707 32.4649 14.9562L39.529 2.95619Z" fill="#5166F1"/>
<path d="M24.9106 2.52577C25.5106 1.50644 25.8107 0.996777 26.2482 0.649674C26.4857 0.461336 26.7502 0.310061 27.033 0.200999C27.5541 0 28.1455 0 29.3284 0C32.5896 0 34.2203 0 35.0821 0.795255C35.5357 1.21379 35.8491 1.76203 35.9797 2.36522C36.2278 3.51134 35.4006 4.91658 33.7461 7.72706L25.6535 21.4742C25.0535 22.4936 24.7534 23.0032 24.3159 23.3503C24.0784 23.5387 23.8139 23.6899 23.5311 23.799C23.01 24 22.4186 24 21.2357 24C17.9744 24 16.3438 24 15.482 23.2047C15.0284 22.7862 14.715 22.238 14.5844 21.6348C14.3363 20.4887 15.1635 19.0834 16.818 16.2729L24.9106 2.52577Z" fill="#5166F1"/>
<path d="M13.3848 1.89433C13.6225 1.49058 13.7413 1.2887 13.8793 1.11757C14.353 0.529692 15.031 0.142062 15.7779 0.0320298C15.9954 0 16.2296 0 16.6982 0C17.9815 0 18.6232 0 19.0511 0.130542C20.5689 0.59355 21.4637 2.15847 21.0927 3.70134C20.9881 4.13635 20.6626 4.68933 20.0115 5.79529L10.41 22.1057C10.1723 22.5094 10.0535 22.7113 9.91556 22.8824C9.44181 23.4703 8.76381 23.8579 8.01686 23.968C7.79943 24 7.56517 24 7.09665 24C5.81328 24 5.1716 24 4.74367 23.8695C3.22587 23.4065 2.33116 21.8415 2.70214 20.2987C2.80673 19.8637 3.13226 19.3107 3.78331 18.2047L13.3848 1.89433Z" fill="#5166F1"/>
</svg>
